<svg width="150" height="146" viewBox="0 0 150 146" fill="none" xmlns="http://www.w3.org/2000/svg">
<rect y="54.7792" width="26.4321" height="104.205" rx="13.216" transform="rotate(-30 0 54.7792)" fill="black" fill-opacity="0.19"/>
<rect x="72.0429" y="13.6777" width="26.4321" height="109.374" rx="13.216" transform="rotate(-30 72.0429 13.6777)" fill="#CFCFCF"/>
<rect x="0.54126" y="55.7155" width="26.4321" height="57.0809" rx="13.216" transform="rotate(-30 0.54126 55.7155)" fill="#BBBBBB"/>
<rect x="94.5804" y="52.7138" width="26.4321" height="64.2997" rx="13.216" transform="rotate(-30 94.5804 52.7138)" fill="#BBBBBB"/>
<path d="M81.9013 130.352C71.1883 138.681 56.1013 151.951 49.3164 140.199C48.9379 139.543 48.6219 138.869 48.3666 138.182C44.1265 126.777 57.6506 116.653 67.0516 108.928C71.8884 104.953 78.3086 100.355 86.6718 95.5261C95.035 90.6977 102.228 87.4368 108.088 85.2354C119.479 80.9566 135.008 74.3061 142.765 83.6808C143.232 84.2452 143.659 84.8561 144.037 85.5117C150.822 97.2635 131.787 103.695 119.217 108.808C113.867 110.984 107.429 114.063 99.8879 118.417C92.3462 122.771 86.4612 126.807 81.9013 130.352Z" fill="#EF5349"/>
<rect x="13.4293" y="78.0397" width="26.4321" height="110.298" rx="13.216" transform="rotate(-120 13.4293 78.0397)" fill="#0D1B2A"/>
</svg>
